HIERARCHY
ROOT hip
{
  OFFSET 0 0 0
  CHANNELS 6 Xposition Yposition Zposition Zrotation Yrotation Xrotation
  JOINT abdomen
  {
    OFFSET 0 20.6881 -0.73152
    CHANNELS 3 Zrotation Xrotation Yrotation
    JOINT chest
    {
      OFFSET 0 11.7043 -0.48768
      CHANNELS 3 Zrotation Xrotation Yrotation
      JOINT neck
      {
        OFFSET 0 22.1894 -2.19456
        CHANNELS 3 Zrotation Xrotation Yrotation
        JOINT head
        {
          OFFSET -0.24384 7.07133 1.2192
          CHANNELS 3 Zrotation Xrotation Yrotation
          JOINT leftEye
          {
            OFFSET 4.14528 8.04674 8.04672
            CHANNELS 3 Zrotation Xrotation Yrotation
            End Site
            {
              OFFSET 1 0 0
            }
          }
          JOINT rightEye
          {
            OFFSET -3.6576 8.04674 8.04672
            CHANNELS 3 Zrotation Xrotation Yrotation
            End Site
            {
              OFFSET 1 0 0
            }
          }
        }
      }
      JOINT rCollar
      {
        OFFSET -2.68224 19.2634 -4.8768
        CHANNELS 3 Zrotation Xrotation Yrotation
        JOINT rShldr
        {
          OFFSET -8.77824 -1.95073 1.46304
          CHANNELS 3 Zrotation Xrotation Yrotation
          JOINT rForeArm
          {
            OFFSET -28.1742 -1.7115 0.48768
            CHANNELS 3 Zrotation Xrotation Yrotation
            JOINT rHand
            {
              OFFSET -22.5879 0.773209 7.07136
              CHANNELS 3 Zrotation Xrotation Yrotation
              JOINT rThumb1
              {
                OFFSET -1.2192 -0.487915 3.41376
                CHANNELS 3 Zrotation Xrotation Yrotation
                JOINT rThumb2
                {
                  OFFSET -3.37035 -0.52449 3.41376
                  CHANNELS 3 Zrotation Xrotation Yrotation
                  End Site
                  {
                    OFFSET -1.78271 -1.18214 1.43049
                  }
                }
              }
              JOINT rIndex1
              {
                OFFSET -7.75947 0.938293 5.60832
                CHANNELS 3 Zrotation Xrotation Yrotation
                JOINT rIndex2
                {
                  OFFSET -2.54057 -0.884171 1.56538
                  CHANNELS 3 Zrotation Xrotation Yrotation
                  End Site
                  {
                    OFFSET -1.62519 -0.234802 1.16502
                  }
                }
              }
              JOINT rMid1
              {
                OFFSET -8.24714 1.18213 3.41376
                CHANNELS 3 Zrotation Xrotation Yrotation
                JOINT rMid2
                {
                  OFFSET -3.10165 -0.590103 1.0647
                  CHANNELS 3 Zrotation Xrotation Yrotation
                  End Site
                  {
                    OFFSET -2.48547 -0.328903 0.83742
                  }
                }
              }
              JOINT rRing1
              {
                OFFSET -8.82822 0.546677 1.51678
                CHANNELS 3 Zrotation Xrotation Yrotation
                JOINT rRing2
                {
                  OFFSET -2.60934 -0.819778 -0.0198488
                  CHANNELS 3 Zrotation Xrotation Yrotation
                  End Site
                  {
                    OFFSET -2.33842 -0.294052 0.168128
                  }
                }
              }
              JOINT rPinky1
              {
                OFFSET -8.27202 -0.0477905 -0.4584
                CHANNELS 3 Zrotation Xrotation Yrotation
                JOINT rPinky2
                {
                  OFFSET -1.82734 -0.647385 -0.700984
                  CHANNELS 3 Zrotation Xrotation Yrotation
                  End Site
                  {
                    OFFSET -1.69225 -0.51767 -0.607171
                  }
                }
              }
            }
          }
        }
      }
      JOINT lCollar
      {
        OFFSET 2.68224 19.2634 -4.8768
        CHANNELS 3 Zrotation Xrotation Yrotation
        JOINT lShldr
        {
          OFFSET 8.77824 -1.95073 1.46304
          CHANNELS 3 Zrotation Xrotation Yrotation
          JOINT lForeArm
          {
            OFFSET 28.1742 -1.7115 0.48768
            CHANNELS 3 Zrotation Xrotation Yrotation
            JOINT lHand
            {
              OFFSET 22.5879 0.773209 7.07136
              CHANNELS 3 Zrotation Xrotation Yrotation
              JOINT lThumb1
              {
                OFFSET 1.2192 -0.487915 3.41376
                CHANNELS 3 Zrotation Xrotation Yrotation
                JOINT lThumb2
                {
                  OFFSET 3.37035 -0.52449 3.41376
                  CHANNELS 3 Zrotation Xrotation Yrotation
                  End Site
                  {
                    OFFSET 1.78271 -1.18214 1.43049
                  }
                }
              }
              JOINT lIndex1
              {
                OFFSET 7.75947 0.938293 5.60832
                CHANNELS 3 Zrotation Xrotation Yrotation
                JOINT lIndex2
                {
                  OFFSET 2.54057 -0.884171 1.56538
                  CHANNELS 3 Zrotation Xrotation Yrotation
                  End Site
                  {
                    OFFSET 1.62519 -0.234802 1.16502
                  }
                }
              }
              JOINT lMid1
              {
                OFFSET 8.24714 1.18213 3.41376
                CHANNELS 3 Zrotation Xrotation Yrotation
                JOINT lMid2
                {
                  OFFSET 3.10165 -0.590103 1.0647
                  CHANNELS 3 Zrotation Xrotation Yrotation
                  End Site
                  {
                    OFFSET 2.48547 -0.328903 0.83742
                  }
                }
              }
              JOINT lRing1
              {
                OFFSET 8.82822 0.546677 1.51678
                CHANNELS 3 Zrotation Xrotation Yrotation
                JOINT lRing2
                {
                  OFFSET 2.60934 -0.819778 -0.0198488
                  CHANNELS 3 Zrotation Xrotation Yrotation
                  End Site
                  {
                    OFFSET 2.33842 -0.294052 0.168128
                  }
                }
              }
              JOINT lPinky1
              {
                OFFSET 8.27202 -0.0477905 -0.4584
                CHANNELS 3 Zrotation Xrotation Yrotation
                JOINT lPinky2
                {
                  OFFSET 1.82734 -0.647385 -0.700984
                  CHANNELS 3 Zrotation Xrotation Yrotation
                  End Site
                  {
                    OFFSET 1.69225 -0.51767 -0.607171
                  }
                }
              }
            }
          }
        }
      }
    }
  }
  JOINT rButtock
  {
    OFFSET -8.77824 4.35084 1.2192
    CHANNELS 3 Zrotation Xrotation Yrotation
    JOINT rThigh
    {
      OFFSET 0 -1.70687 -2.19456
      CHANNELS 3 Zrotation Xrotation Yrotation
      JOINT rShin
      {
        OFFSET 0 -36.8199 0.73152
        CHANNELS 3 Zrotation Xrotation Yrotation
        JOINT rFoot
        {
          OFFSET 0.73152 -45.1104 -5.12064
          CHANNELS 3 Zrotation Xrotation Yrotation
          End Site
          {
            OFFSET -1.1221 -3.69964 12.103
          }
        }
      }
    }
  }
  JOINT lButtock
  {
    OFFSET 8.77824 4.35084 1.2192
    CHANNELS 3 Zrotation Xrotation Yrotation
    JOINT lThigh
    {
      OFFSET 0 -1.70687 -2.19456
      CHANNELS 3 Zrotation Xrotation Yrotation
      JOINT lShin
      {
        OFFSET 0 -36.8199 0.73152
        CHANNELS 3 Zrotation Xrotation Yrotation
        JOINT lFoot
        {
          OFFSET -0.73152 -45.1104 -5.12064
          CHANNELS 3 Zrotation Xrotation Yrotation
          End Site
          {
            OFFSET 1.1221 -3.69964 12.103
          }
        }
      }
    }
  }
}
MOTION
Frames:	5
Frame Time:	0.00833333
55.6141 68.564 115.547 -179.28 -5.8579 -144.599 1.7458 33.9026 5.33295 0.324376 -14.3506 0.940168 -9.60695 4.38734 -4.42339 9.09165 -57.2993 -9.13269 -0.0 0.0 0.0 -0.0 0.0 0.0 -1.00986e-13 -6.04301e-14 -5.47652e-14 21.1677 -5.16766 55.853 -22.0947 -15.9002 44.0462 -0.0341847 -5.27006 -0.742775 -2.34371e-09 8.55535e-09 -1.16144e-09 -4.04385e-09 1.47966e-08 -2.01088e-09 -2.34371e-09 8.55537e-09 -1.16145e-09 7.73091 5.47488 0.417314 -2.34371e-09 8.55536e-09 -1.16144e-09 2.90554 0.965183 0.102902 -2.3437e-09 8.55536e-09 -1.16144e-09 10.2786 0.731801 0.0259123 -2.34372e-09 8.55536e-09 -1.16142e-09 2.22167 -0.733487 -0.20892 -1.00986e-13 -6.04305e-14 -5.49143e-14 -37.8197 -10.472 -75.4397 18.4137 -11.1384 -34.9549 0.396179 -17.6117 2.55702 1.70348e-09 6.80035e-09 -1.02136e-09 2.94843e-09 1.17805e-08 -1.74713e-09 1.70347e-09 6.80037e-09 -1.02134e-09 -7.73091 5.47488 -0.417314 1.70348e-09 6.80036e-09 -1.02135e-09 -2.90554 0.965183 -0.102902 1.70347e-09 6.80037e-09 -1.02136e-09 -10.2786 0.731801 -0.0259123 1.70348e-09 6.80034e-09 -1.02137e-09 -2.22167 -0.733487 0.20892 -2.03217e-16 0.0 -3.88251e-19 11.4885 -64.2025 -1.3092 -3.35756 77.4558 4.71466 -12.5297 -18.8585 -24.0427 2.03217e-16 0.0 3.88251e-19 7.36837 -68.1954 9.56932 4.1377 78.5637 -4.8977 5.17478 -23.6003 9.39379
55.4992 68.9992 114.431 -179.677 -5.9427 -145.132 1.70295 33.0245 5.20378 0.409992 -14.1016 0.951045 -9.75988 4.00305 -4.52862 8.70469 -56.6072 -9.42291 -0.0 0.0 0.0 -0.0 0.0 0.0 -6.6272e-14 -7.61334e-14 -6.51218e-14 19.8605 -8.72602 57.255 -22.4974 -16.5238 45.1488 -0.0593969 -7.05982 -0.996605 -1.9478e-09 6.54313e-09 -1.44e-09 -3.35355e-09 1.13613e-08 -2.4929e-09 -1.9478e-09 6.54314e-09 -1.44e-09 7.73091 5.47488 0.417314 -1.9478e-09 6.54314e-09 -1.44e-09 2.90554 0.965183 0.102902 -1.94779e-09 6.54314e-09 -1.44e-09 10.2786 0.731801 0.0259123 -1.94781e-09 6.54314e-09 -1.43999e-09 2.22167 -0.733487 -0.20892 -6.63217e-14 -7.61357e-14 -6.52751e-14 -36.7621 -13.4848 -77.4353 18.8093 -11.5797 -35.8804 0.454038 -18.809 2.74342 1.15759e-09 2.65485e-09 -3.66187e-10 1.99442e-09 4.66521e-09 -6.20259e-10 1.15758e-09 2.65486e-09 -3.66171e-10 -7.73091 5.47488 -0.417314 1.15759e-09 2.65486e-09 -3.66179e-10 -2.90554 0.965183 -0.102902 1.15758e-09 2.65486e-09 -3.66186e-10 -10.2786 0.731801 -0.0259123 1.15759e-09 2.65484e-09 -3.66191e-10 -2.22167 -0.733487 0.20892 -2.03217e-16 0.0 -3.88251e-19 11.0995 -62.3622 -1.34085 -3.00913 76.3025 4.32956 -12.1008 -18.3455 -23.7362 2.03217e-16 0.0 3.88251e-19 6.39383 -66.4517 8.57578 3.71371 77.5229 -4.46596 5.08058 -23.1231 9.35587
55.4195 69.4318 113.28 -179.907 -5.8886 -145.525 1.63932 32.1404 5.00039 0.460567 -13.8223 0.935152 -9.81211 3.29277 -4.682 7.97754 -55.5802 -9.98588 -0.0 0.0 0.0 -0.0 0.0 0.0 -3.32301e-14 -1.0933e-13 -7.01244e-14 18.7216 -12.5025 58.6308 -22.8939 -17.162 46.2793 -0.0934829 -8.90456 -1.26061 -1.53572e-09 3.29678e-09 -1.87393e-09 -2.63329e-09 5.81048e-09 -3.24196e-09 -1.53571e-09 3.29678e-09 -1.87393e-09 7.73091 5.47488 0.417314 -1.53572e-09 3.29678e-09 -1.87393e-09 2.90554 0.965183 0.102902 -1.53571e-09 3.29678e-09 -1.87393e-09 10.2786 0.731801 0.0259123 -1.53572e-09 3.29678e-09 -1.87392e-09 2.22167 -0.733487 -0.20892 -3.33649e-14 -1.09334e-13 -7.0289e-14 -35.7568 -17.2628 -79.6253 19.213 -12.0354 -36.8716 0.517301 -20.0334 2.93672 3.9327e-10 -4.02207e-09 5.38381e-10 6.58195e-10 -6.80033e-09 9.34126e-10 3.93266e-10 -4.02206e-09 5.38403e-10 -7.73091 5.47488 -0.417314 3.93268e-10 -4.02207e-09 5.38395e-10 -2.90554 0.965183 -0.102902 3.93265e-10 -4.02207e-09 5.38389e-10 -10.2786 0.731801 -0.0259123 3.93271e-10 -4.02208e-09 5.38385e-10 -2.22167 -0.733487 0.20892 -2.03217e-16 0.0 -3.88251e-19 10.5212 -60.4693 -1.52684 -2.70253 75.0788 3.9839 -11.6482 -17.8273 -23.3831 2.03217e-16 0.0 3.88251e-19 5.33443 -64.6111 7.56122 3.31813 76.3549 -4.06053 4.96179 -22.7086 9.25979
55.3469 69.9557 112.028 -180.042 -5.8559 -145.9 1.57768 31.2636 4.78005 0.490889 -13.5849 0.913531 -9.81958 2.58268 -4.8313 7.21553 -54.5393 -10.5586 -0.0 0.0 0.0 -0.0 0.0 0.0 -1.43054e-15 -1.4034e-13 -7.53988e-14 17.735 -16.1676 60.0212 -23.285 -17.818 47.4281 -0.136284 -10.628 -1.51037 -1.1269e-09 2.43995e-10 -2.11643e-09 -1.92164e-09 5.82305e-10 -3.6594e-09 -1.1269e-09 2.43998e-10 -2.11642e-09 7.73091 5.47488 0.417314 -1.1269e-09 2.44e-10 -2.11643e-09 2.90554 0.965183 0.102902 -1.12689e-09 2.44001e-10 -2.11642e-09 10.2786 0.731801 0.0259123 -1.12691e-09 2.44001e-10 -2.11642e-09 2.22167 -0.733487 -0.20892 -1.6507e-15 -1.40346e-13 -7.55793e-14 -35.0578 -21.0196 -82.3803 19.6867 -12.6026 -38.0049 0.573756 -21.0317 3.0971 -2.62827e-10 -1.034e-08 1.24465e-09 -4.87554e-10 -1.76607e-08 2.14689e-09 -2.6283e-10 -1.034e-08 1.24468e-09 -7.73091 5.47488 -0.417314 -2.62829e-10 -1.034e-08 1.24467e-09 -2.90554 0.965183 -0.102902 -2.62832e-10 -1.034e-08 1.24467e-09 -10.2786 0.731801 -0.0259123 -2.62824e-10 -1.034e-08 1.24467e-09 -2.22167 -0.733487 0.20892 -2.03217e-16 0.0 -3.88251e-19 9.8491 -58.4379 -1.84083 -2.41068 73.706 3.64914 -11.1391 -17.204 -22.9938 2.03217e-16 0.0 3.88251e-19 4.3915 -62.6001 6.67533 2.94117 75.0178 -3.67071 4.78624 -22.1554 9.09196
55.2256 70.5465 110.674 -180.263 -5.9666 -146.266 1.5451 30.408 4.59763 0.515285 -13.4621 0.907092 -9.83276 2.19857 -4.92343 6.67579 -53.808 -10.9147 -0.0 0.0 0.0 -0.0 0.0 0.0 2.95564e-14 -1.49483e-13 -8.65707e-14 16.8425 -19.4064 61.3053 -23.6714 -18.4956 48.586 -0.181596 -12.0542 -1.71982 -7.408e-10 -1.1875e-09 -1.82069e-09 -1.25716e-09 -1.88498e-09 -3.14652e-09 -7.40794e-10 -1.1875e-09 -1.82068e-09 7.73091 5.47488 0.417314 -7.408e-10 -1.1875e-09 -1.8207e-09 2.90554 0.965183 0.102902 -7.4079e-10 -1.1875e-09 -1.82068e-09 10.2786 0.731801 0.0259123 -7.40805e-10 -1.18749e-09 -1.82068e-09 2.22167 -0.733487 -0.20892 2.92858e-14 -1.49492e-13 -8.67695e-14 -34.704 -23.9241 -85.1568 20.2794 -13.3672 -39.3626 0.605706 -21.5509 3.18183 -4.8405e-10 -1.34085e-08 1.30493e-09 -8.70133e-10 -2.29604e-08 2.24891e-09 -4.84052e-10 -1.34085e-08 1.30496e-09 -7.73091 5.47488 -0.417314 -4.84052e-10 -1.34085e-08 1.30496e-09 -2.90554 0.965183 -0.102902 -4.84055e-10 -1.34085e-08 1.30495e-09 -10.2786 0.731801 -0.0259123 -4.84047e-10 -1.34085e-08 1.30495e-09 -2.22167 -0.733487 0.20892 -2.03217e-16 0.0 -3.88251e-19 9.17803 -56.1819 -2.25851 -2.12062 72.1056 3.3108 -10.5434 -16.3756 -22.5816 2.03217e-16 0.0 3.88251e-19 3.72991 -60.3489 6.03624 2.57953 73.4697 -3.29221 4.52546 -21.2616 8.84148
